<svg id="OBJECT" xmlns="http://www.w3.org/2000/svg" viewBox="0 0 425.99 397.8"><defs><style>.cls-1{fill:#d8e8fc;}.cls-2{fill:#b8d3fe;}.cls-13,.cls-16,.cls-18,.cls-21,.cls-22,.cls-3,.cls-5{fill:none;}.cls-13,.cls-3{stroke:#fff;}.cls-21,.cls-3{stroke-linecap:round;stroke-linejoin:round;}.cls-3{stroke-width:0.5px;}.cls-4{fill:#86b6fe;}.cls-5{stroke:#87aadd;}.cls-13,.cls-16,.cls-18,.cls-22,.cls-5{stroke-miterlimit:10;}.cls-6{fill:#87aadd;}.cls-7{fill:#b7d2fb;}.cls-8{fill:#fff;}.cls-9{fill:#004b94;}.cls-10{fill:#ff736a;}.cls-11{fill:#ff908d;}.cls-12{fill:#8da9d9;}.cls-14{fill:#a6bfe8;}.cls-15{fill:#0067bd;}.cls-16{stroke:#cddcff;}.cls-17{fill:#cddcff;}.cls-18{stroke:#0067bd;}.cls-19{fill:#ff9593;}.cls-20{fill:#fff1dc;}.cls-21{stroke:#ff736a;stroke-width:2px;stroke-dasharray:20.36 20.36;}.cls-22{stroke:#004b94;}.cls-23{fill:#003c6d;}.cls-24{fill:#449de0;}.cls-25{fill:#033f70;}.cls-26{fill:#d35854;}.cls-27{fill:#cca47f;}.cls-28{fill:#ddbc99;}.cls-29{fill:#f2ddc2;}.cls-30{fill:#ececec;}.cls-31{fill:#fffffe;}.cls-32{fill:#db7777;}.cls-33{fill:#b76363;}</style></defs><title>4899234</title><path class="cls-1" d="M246.25,63s-96.2,4.4-133.39,73S48.8,188,39.36,262.51C28,352.25,84,423.32,84,423.32H416.6s36.88-82.79,40.63-164.45-47.76-119.44-94-129.26S309.47,57.34,246.25,63Z" transform="translate(-37 -51.1)"/><path class="cls-2" d="M79.4,415.84s-8.11-23.48-20-31.93-27.27,2.41-20.71,18.47S77,419.81,77,419.81Z" transform="translate(-37 -51.1)"/><path class="cls-3" d="M44.71,386s25.55,24.25,31.5,30.64" transform="translate(-37 -51.1)"/><polyline class="cls-3" points="1.66 343.6 17.02 343.77 17.54 331.77"/><polyline class="cls-3" points="2.35 347.91 20.2 346.82 21.25 332.98"/><polyline class="cls-3" points="4.51 352.31 23.01 349.52 24.45 335.48"/><polyline class="cls-3" points="7.71 357.06 25.89 352.31 27.73 339.28"/><polyline class="cls-3" points="12.8 360.43 28.71 355.04 30.4 343.25"/><polyline class="cls-3" points="17.72 362.5 31.28 357.56 32.73 346.88"/><polyline class="cls-3" points="22.64 364.05 33.63 359.87 34.72 350.85"/><polyline class="cls-3" points="27.73 364.91 35.71 361.93 36.79 354.04"/><polyline class="cls-3" points="31.27 366.21 37.8 364.05 38.69 358.01"/><polyline class="cls-3" points="3.56 339.28 12.56 339.51 13.23 331.77"/><path class="cls-4" d="M84.43,412S88.35,387.42,98.61,377s27.28-2.35,23.61,14.59S87.5,415.44,87.5,415.44Z" transform="translate(-37 -51.1)"/><path class="cls-3" d="M113.42,376.52s-21,28.32-25.71,35.64" transform="translate(-37 -51.1)"/><polyline class="cls-3" points="83.88 332.96 68.79 335.79 66.19 324.07"/><polyline class="cls-3" points="83.95 337.33 66.19 339.35 62.75 325.9"/><polyline class="cls-3" points="82.59 342.04 63.89 342.5 60.03 328.92"/><polyline class="cls-3" points="80.26 347.27 61.53 345.75 57.46 333.23"/><polyline class="cls-3" points="75.83 351.46 59.23 348.92 55.52 337.6"/><polyline class="cls-3" points="71.35 354.36 57.13 351.84 53.85 341.58"/><polyline class="cls-3" points="66.77 356.74 55.22 354.53 52.58 345.83"/><polyline class="cls-3" points="61.91 358.47 53.53 356.92 51.1 349.33"/><polyline class="cls-3" points="58.65 360.36 51.84 359.37 49.91 353.57"/><polyline class="cls-3" points="81.26 329.04 72.44 330.82 70.44 323.32"/><path class="cls-4" d="M65.67,424.11H176.92s-10.82-18.31-27.47-19.42-19.42,10-34.12,9.71-23.86-7.21-35-5.27S65.67,424.11,65.67,424.11Z" transform="translate(-37 -51.1)"/><path class="cls-5" d="M72.75,372.39s8.11,23.23,8.84,38.18" transform="translate(-37 -51.1)"/><path class="cls-6" d="M67.72,367a6.38,6.38,0,0,0,2,4.16,9.4,9.4,0,0,0,3.84,2.73s-.2-4.86-2.23-7.15S67.74,365.66,67.72,367Z" transform="translate(-37 -51.1)"/><path class="cls-6" d="M65,376.07a6.42,6.42,0,0,0,4.31,1.67,9.25,9.25,0,0,0,4.66-.62s-3.45-3.42-6.5-3.71S64.11,375.06,65,376.07Z" transform="translate(-37 -51.1)"/><path class="cls-6" d="M68.48,385.56a6.39,6.39,0,0,0,4.31,1.68,9.39,9.39,0,0,0,4.66-.62S74,383.19,71,382.9,67.57,384.55,68.48,385.56Z" transform="translate(-37 -51.1)"/><path class="cls-6" d="M70.18,394.92a6.41,6.41,0,0,0,4.3,1.67,9.27,9.27,0,0,0,4.67-.62s-3.45-3.42-6.5-3.71S69.27,393.91,70.18,394.92Z" transform="translate(-37 -51.1)"/><path class="cls-6" d="M72.16,403.42a6.39,6.39,0,0,0,4.31,1.68,9.41,9.41,0,0,0,4.67-.62s-3.46-3.42-6.5-3.71S71.26,402.42,72.16,403.42Z" transform="translate(-37 -51.1)"/><path class="cls-6" d="M78.83,369.14a6.37,6.37,0,0,0-3.08,3.44,9.33,9.33,0,0,0-1.06,4.58s4.42-2,5.76-4.77S80.09,368.64,78.83,369.14Z" transform="translate(-37 -51.1)"/><path class="cls-6" d="M80.91,375.7a6.42,6.42,0,0,0-3.08,3.44,9.38,9.38,0,0,0-1.06,4.59s4.42-2,5.76-4.78S82.17,375.21,80.91,375.7Z" transform="translate(-37 -51.1)"/><path class="cls-6" d="M83,384.2a6.42,6.42,0,0,0-3.09,3.44,9.38,9.38,0,0,0-1.06,4.59s4.42-2,5.76-4.78S84.25,383.71,83,384.2Z" transform="translate(-37 -51.1)"/><path class="cls-6" d="M85,392.68a6.37,6.37,0,0,0-3.08,3.44,9.36,9.36,0,0,0-1.06,4.59s4.42-2,5.76-4.78S86.28,392.18,85,392.68Z" transform="translate(-37 -51.1)"/><path class="cls-2" d="M426.42,412.92s2.64-20.19,10.8-29,22.31-2.57,19.7,11.41S429,415.71,429,415.71Z" transform="translate(-37 -51.1)"/><path class="cls-3" d="M449.35,383.2S432.84,406.9,429.12,413" transform="translate(-37 -51.1)"/><polyline class="cls-3" points="418.64 338.1 406.34 340.78 403.93 331.23"/><polyline class="cls-3" points="418.8 341.68 404.29 343.76 401.16 332.81"/><polyline class="cls-3" points="417.8 345.57 402.48 346.39 399 335.36"/><polyline class="cls-3" points="416.02 349.92 400.62 349.11 396.99 338.95"/><polyline class="cls-3" points="412.48 353.46 398.81 351.77 395.5 342.58"/><polyline class="cls-3" points="408.88 355.94 397.16 354.21 394.23 345.88"/><polyline class="cls-3" points="405.18 358 395.65 356.46 393.29 349.39"/><polyline class="cls-3" points="401.23 359.54 394.33 358.46 392.15 352.3"/><polyline class="cls-3" points="398.61 361.16 393 360.51 391.29 355.8"/><polyline class="cls-3" points="416.4 334.95 409.21 336.62 407.4 330.52"/><path class="cls-4" d="M418.12,414.12s-3.92-24.52-14.19-34.92-27.27-2.35-23.6,14.6,34.72,23.81,34.72,23.81Z" transform="translate(-37 -51.1)"/><path class="cls-3" d="M389.13,378.7s20.95,28.31,25.71,35.64" transform="translate(-37 -51.1)"/><polyline class="cls-3" points="344.66 335.14 359.75 337.97 362.35 326.25"/><polyline class="cls-3" points="344.59 339.51 362.36 341.52 365.79 328.08"/><polyline class="cls-3" points="345.95 344.22 364.65 344.67 368.51 331.1"/><polyline class="cls-3" points="348.28 349.44 367.01 347.92 371.08 335.41"/><polyline class="cls-3" points="352.71 353.64 369.31 351.1 373.02 339.78"/><polyline class="cls-3" points="357.19 356.54 371.41 354.02 374.69 343.75"/><polyline class="cls-3" points="361.77 358.92 373.32 356.71 375.96 348.01"/><polyline class="cls-3" points="366.63 360.65 375.01 359.1 377.44 351.51"/><polyline class="cls-3" points="369.89 362.54 376.7 361.55 378.63 355.75"/><polyline class="cls-3" points="347.28 331.22 356.1 333 358.1 325.5"/><path class="cls-4" d="M463,424.57H330.79s8.95-20.23,28.73-21.55,27.13,12.92,44.61,12.59S423.27,406.24,443,409C456.23,410.86,463,424.57,463,424.57Z" transform="translate(-37 -51.1)"/><path class="cls-7" d="M44.65,438.62h42.8s-4.66-8.47-13.47-9.3-13.1,4-17.68,4.65S46.15,431.83,43,432.51c-6.52,1.41-6,6.11-6,6.11Z" transform="translate(-37 -51.1)"/><path class="cls-7" d="M337.9,448.9h42.81s-4.67-8.46-13.47-9.29-13.11,4-17.69,4.64-10.14-2.14-13.31-1.45c-6.52,1.41-6,6.1-6,6.1Z" transform="translate(-37 -51.1)"/><circle class="cls-2" cx="411.29" cy="250.6" r="14.19"/><polygon class="cls-8" points="405.19 145.38 380.29 143.32 376.8 185.49 410.05 188.24 412.7 156.12 405.19 145.38"/><polygon class="cls-9" points="405.19 145.38 401.98 155.32 412.7 156.21 405.19 145.38"/><polygon class="cls-10" points="23.2 260.83 5.9 269.1 19.9 298.38 42.99 287.35 32.33 265.04 23.2 260.83"/><polygon class="cls-9" points="23.2 260.83 24.91 268.66 32.36 265.1 23.2 260.83"/><rect class="cls-11" x="13.69" y="148.37" width="32.56" height="22.47"/><polygon class="cls-12" points="29.29 158.57 27.68 162.94 8.48 162.94 8.48 190.19 50.1 190.19 50.1 167.62 50.1 162.94 50.1 158.57 29.29 158.57"/><path class="cls-8" d="M56.83,229.84v13.54H77.12V229.84ZM73.08,241.1H60.87V233H73.08Z" transform="translate(-37 -51.1)"/><circle class="cls-13" cx="56.5" cy="207.77" r="6.15"/><path class="cls-14" d="M228.18,58.41v47.08a2.23,2.23,0,0,1-2.23,2.23H176.37a2.23,2.23,0,0,1-2.23-2.23V58.41A3.3,3.3,0,0,1,177.33,55H225A3.29,3.29,0,0,1,228.18,58.41Z" transform="translate(-37 -51.1)"/><path class="cls-6" d="M228.18,58.22V68.39h-54V58.22a3.2,3.2,0,0,1,3.19-3.2H225A3.19,3.19,0,0,1,228.18,58.22Z" transform="translate(-37 -51.1)"/><rect class="cls-8" x="142.17" y="21.07" width="8.39" height="8.14" rx="0.86"/><rect class="cls-8" x="154.16" y="21.07" width="8.39" height="8.14" rx="0.86"/><rect class="cls-8" x="166.15" y="21.07" width="8.39" height="8.14" rx="0.86"/><rect class="cls-8" x="178.14" y="21.07" width="8.39" height="8.14" rx="0.86"/><rect class="cls-8" x="142.17" y="32.6" width="8.39" height="8.14" rx="0.86"/><rect class="cls-8" x="154.16" y="32.6" width="8.39" height="8.14" rx="0.86"/><rect class="cls-8" x="142.17" y="42.96" width="8.39" height="8.14" rx="0.86"/><rect class="cls-8" x="154.16" y="42.96" width="8.39" height="8.14" rx="0.86"/><rect class="cls-8" x="166.15" y="32.6" width="8.39" height="8.14" rx="0.86"/><rect class="cls-8" x="178.14" y="32.6" width="8.39" height="8.14" rx="0.86"/><rect class="cls-15" x="147.06" width="3.49" height="7.85" rx="1.29"/><rect class="cls-15" x="155.2" width="3.49" height="7.85" rx="1.29"/><rect class="cls-15" x="163.33" width="3.49" height="7.85" rx="1.29"/><rect class="cls-15" x="171.47" width="3.49" height="7.85" rx="1.29"/><rect class="cls-15" x="179.61" width="3.49" height="7.85" rx="1.29"/><path class="cls-6" d="M196.4,87.76l2.37-2.25a.68.68,0,0,0,0-1,.69.69,0,0,0-1,0l-2.42,2.3L193,84.52a.69.69,0,0,0-1,0,.68.68,0,0,0,0,1l2.37,2.25L192.06,90a.68.68,0,0,0,0,1,.67.67,0,0,0,.49.21A.66.66,0,0,0,193,91l2.42-2.3,2.42,2.3a.66.66,0,0,0,.47.19.68.68,0,0,0,.46-1.17Z" transform="translate(-37 -51.1)"/><polygon class="cls-16" points="85.52 40.25 79.17 49.82 91.87 49.82 85.52 40.25"/><polygon class="cls-13" points="25.23 223.7 12.55 242.81 37.9 242.81 25.23 223.7"/><polygon class="cls-13" points="359.89 169.59 353.54 179.17 366.23 179.17 359.89 169.59"/><path class="cls-6" d="M94.78,143.08v-8l-4.28-.63a15.44,15.44,0,0,0-1.35-3l2.39-3.23-5.62-5.61-3.41,2.51a16.55,16.55,0,0,0-2.49-1l-.66-4.37H71.42l-.62,4.15a16.55,16.55,0,0,0-3.47,1.35l-3.52-2.6-5.62,5.61,2.55,3.45a16.9,16.9,0,0,0-1.2,2.71l-4.59.68v8l4.22.63a16.66,16.66,0,0,0,1.64,4.1l-2.62,3.55L63.81,157l3.7-2.73a16.43,16.43,0,0,0,3.26,1.26l.65,4.37h7.94l.69-4.59a17,17,0,0,0,2.29-.95L85.92,157l5.62-5.61L89.08,148a16.35,16.35,0,0,0,1.79-4.38Z" transform="translate(-37 -51.1)"/><circle class="cls-14" cx="38.46" cy="88.62" r="12.72"/><circle class="cls-17" cx="75.46" cy="139.89" r="9.48" transform="translate(-113.82 43.23) rotate(-45)"/><circle class="cls-13" cx="226.97" cy="43.14" r="6.61"/><rect class="cls-6" x="258.81" y="38.29" width="7.75" height="19.13"/><rect class="cls-6" x="270.36" y="32.12" width="7.75" height="25.29"/><rect class="cls-6" x="281.9" y="23.01" width="7.75" height="34.41"/><rect class="cls-6" x="293.45" y="12.52" width="7.75" height="44.89"/><rect class="cls-15" x="258.81" y="59.31" width="42.38" height="2.13"/><polyline class="cls-18" points="256.37 32.55 267.62 23.01 271.42 26.8 286.78 14.01"/><path class="cls-15" d="M326.66,62.71a18.81,18.81,0,0,0-2.19,5.66l-1.07-3-2.7-1.58A18.65,18.65,0,0,0,326.66,62.71Z" transform="translate(-37 -51.1)"/><circle class="cls-16" cx="399.45" cy="108.51" r="11.56" transform="translate(191.12 434.22) rotate(-80.75)"/><path class="cls-17" d="M342.08,433.41c0,3.49-40.59,6.33-90.65,6.33s-90.66-2.84-90.66-6.33,40.59-6.33,90.66-6.33S342.08,429.92,342.08,433.41Z" transform="translate(-37 -51.1)"/><rect class="cls-9" x="201.14" y="83.87" width="20.44" height="14.08"/><rect class="cls-19" x="185.12" y="68.68" width="53.85" height="19.65" rx="5.14"/><rect class="cls-9" x="142.07" y="118.96" width="5.8" height="76.64" rx="2.75" transform="matrix(0.81, -0.59, 0.59, 0.81, -101.86, 64.63)"/><path class="cls-10" d="M191,138.83l-78,56.89a41.8,41.8,0,0,1,9.14-58.45l10.37-7.57A41.84,41.84,0,0,1,191,138.83Z" transform="translate(-37 -51.1)"/><path class="cls-11" d="M191,138.83l-10.22,7.45c-5-4.66-12.82-9.47-24.69-11.72-15.41-2.92-30.08,2.62-39.76,7.86a41.29,41.29,0,0,1,5.84-5.15l10.37-7.57A41.84,41.84,0,0,1,191,138.83Z" transform="translate(-37 -51.1)"/><rect class="cls-9" x="352.58" y="121.04" width="5.8" height="76.64" rx="2.75" transform="translate(511.67 446.55) rotate(-143.88)"/><path class="cls-10" d="M309.47,140.9l78,56.9a41.85,41.85,0,0,0-9.15-58.46l-10.36-7.56A41.83,41.83,0,0,0,309.47,140.9Z" transform="translate(-37 -51.1)"/><path class="cls-11" d="M309.47,140.9l10.21,7.46c5-4.66,12.82-9.47,24.69-11.72,15.41-2.92,30.09,2.62,39.76,7.86a41.36,41.36,0,0,0-5.84-5.16l-10.36-7.56A41.83,41.83,0,0,0,309.47,140.9Z" transform="translate(-37 -51.1)"/><path class="cls-9" d="M173.33,386.7l-10.75,32.51a11.19,11.19,0,0,0,10.62,14.71h0a11.18,11.18,0,0,0,8.57-4l19.29-23Z" transform="translate(-37 -51.1)"/><path class="cls-9" d="M321.78,386.7l10.75,32.51a11.19,11.19,0,0,1-10.62,14.71h0a11.18,11.18,0,0,1-8.57-4l-19.29-23Z" transform="translate(-37 -51.1)"/><circle class="cls-12" cx="248.77" cy="282.58" r="137.39" transform="translate(-163.96 207.58) rotate(-45)"/><circle class="cls-15" cx="248.77" cy="282.58" r="127.73" transform="translate(-163.96 207.58) rotate(-45)"/><circle class="cls-20" cx="248.77" cy="282.58" r="114.47" transform="translate(-163.96 207.58) rotate(-45)"/><circle class="cls-21" cx="248.77" cy="282.58" r="103.7" transform="translate(-163.96 207.58) rotate(-45)"/><circle class="cls-10" cx="251.08" cy="283.86" r="25" transform="translate(-121.76 408.37) rotate(-76.11)"/><polygon class="cls-9" points="215.41 155.86 214.2 155.86 213.96 155.86 212.75 155.86 209.85 221.61 213.75 221.61 215.56 221.61 218.31 221.61 215.41 155.86"/><polygon class="cls-9" points="142.38 277.33 143 278.36 143.13 278.57 143.75 279.61 207.24 244.38 205.24 241.05 204.3 239.49 202.89 237.14 142.38 277.33"/><line class="cls-22" x1="216.39" y1="231.73" x2="283.34" y2="213.43"/><circle class="cls-23" cx="251.08" cy="283.86" r="14.14" transform="translate(-163.2 196.95) rotate(-43.08)"/><ellipse class="cls-17" cx="373.13" cy="387.43" rx="33.07" ry="4.75"/><polygon class="cls-23" points="355.4 240.38 343.38 262.33 348.79 267.51 360.96 254.39 355.4 240.38"/><path class="cls-24" d="M380.38,313.43l-12.28,3,.77,4.85a59,59,0,0,0,11.51-.17c6.2-.72,5.41-2.52,5.41-2.52Z" transform="translate(-37 -51.1)"/><path class="cls-10" d="M403.66,286.1l-11.14,5.48-3.6,12.07,10.28,35,23.7-5.48s-.14-32.05,0-37.87-5.41-11-5.41-11Z" transform="translate(-37 -51.1)"/><path class="cls-9" d="M391.43,434s-5.1,1.48-6.4,2.58-1.25,1.94-1.25,1.94H403l-.94-4.92s-4.37.86-7.33,1.33S391.43,434,391.43,434Z" transform="translate(-37 -51.1)"/><path class="cls-9" d="M423,434s-5.09,1.48-6.4,2.58-1.24,1.94-1.24,1.94H434l-.86-4.83s-3.87.77-6.84,1.24S423,434,423,434Z" transform="translate(-37 -51.1)"/><path class="cls-19" d="M401.91,431.08c.55-4.85,3.91-36.38,1.12-47.82,0,0-7.39-3-10.51-1.79l3.24,50.26L391.43,434s-.52,1.48,3.17,1.49a19.32,19.32,0,0,0,7.49-1.89l-.18-2.53Z" transform="translate(-37 -51.1)"/><path class="cls-19" d="M432.25,431.26h0c-3.32-19.18-12.12-45.08-12.12-45.08l-9.8-5.13s-1.16,2.08-.06,8.5c1.07,6.24,14.82,40.18,15.59,42.08L423,434s-.55.86,2,1,8.19-1.33,8.19-1.33Z" transform="translate(-37 -51.1)"/><path class="cls-9" d="M399.2,338.68s-5.71,23.64-6.68,42.79l27.61,4.71S430.67,367,429.83,351s-7.09-21.22-7.09-21.22Z" transform="translate(-37 -51.1)"/><path class="cls-25" d="M392.66,381.47l30.22-51.74-23.77,8.17S391.39,373.69,392.66,381.47Z" transform="translate(-37 -51.1)"/><path class="cls-19" d="M389.72,267.24l1.23,8.12-2,3.69,2.83,1.11,4.55,5.79,10.58-6V268.76a4.73,4.73,0,0,0-6-4.57Z" transform="translate(-37 -51.1)"/><polygon class="cls-19" points="362.44 230.79 364.16 238.42 370.81 233.99 369.95 222.91 362.44 230.79"/><path class="cls-23" d="M389.72,267.24s2.8,3.66,6.25,4.77,4.93.82,4.93.82.78,11.06,4.84,13.64,9.4,2.53,11.83-.52c3.92-4.94-4.46-12.68-6.43-18.71s-5.42-8.25-10.59-8.37-10,3.82-10,3.82-3.76,3.5-2.71,7.32,2.87,4,2.87,4Z" transform="translate(-37 -51.1)"/><path class="cls-26" d="M414.48,292.67l-4.34,27.49,8.46,1s7.21-20.67,6.24-28.16c-.48-3.75-2.7-5-4.94-5.06A5.54,5.54,0,0,0,414.48,292.67Z" transform="translate(-37 -51.1)"/><polygon class="cls-27" points="341.49 238.42 343.66 256.71 359.89 256.71 357.79 238.42 341.49 238.42"/><polygon class="cls-28" points="338.92 238.42 341.09 256.71 357.32 256.71 355.22 238.42 338.92 238.42"/><polygon class="cls-29" points="333.03 238.42 335.2 256.71 351.43 256.71 349.33 238.42 333.03 238.42"/><polygon class="cls-20" points="329.16 239.86 330.97 256.71 347.19 256.71 345.46 239.86 329.16 239.86"/><rect class="cls-8" x="329.72" y="255.19" width="34.95" height="40.78"/><polygon class="cls-30" points="329.72 295.97 364.67 255.19 364.67 295.97 329.72 295.97"/><path class="cls-19" d="M410.34,318.87l-23.77,6.26c-.5-.21-1.44-.59-2.14-.83a14.44,14.44,0,0,0-2.83-.48,1.57,1.57,0,0,0,.52.72c.33.19,2.14.92,2.14.92s-2.22.48-3.18.74h0l-1.86.3c-.79-.08-1.28-.08-1.28-.08-.57.19.52,1,1.34,1.07a7.21,7.21,0,0,0,2.1-.31l.18.35-1.69.5-.94-.19s-.34-.11-.36.17.39.92,1.28,1a5.94,5.94,0,0,0,2.19-.5l.14.28-1.78.53-.93-.19s-.35-.11-.37.17.4.92,1.29,1a6.3,6.3,0,0,0,2.27-.53l.16.31-1.28.37-.69-.14s-.26-.08-.27.13.29.68.95.75a4.74,4.74,0,0,0,1.65-.38h0l4.61-1.1h0c2-.14,19.62-1.34,25-3,5.69-1.81,5.83-5.55,5.83-5.55Z" transform="translate(-37 -51.1)"/><ellipse class="cls-17" cx="93.1" cy="382.77" rx="33.07" ry="4.75"/><path class="cls-9" d="M102.91,424.07s-2.49,7.34-3.22,9.73l17.58.37a6.2,6.2,0,0,0-3.48-3,23.14,23.14,0,0,0-6.87-1.25l1.18-3Z" transform="translate(-37 -51.1)"/><polygon class="cls-9" points="119.92 240.86 133.71 271.01 125.84 276.78 113.83 263.99 119.92 240.86"/><path class="cls-19" d="M153.35,260.18a12.43,12.43,0,0,1,2.46,5.42,20.33,20.33,0,0,1,.47,5.23l3,2.67-2.54,2.56-2.61,7.56-6-.72-.08,5.34-10.29-6.06,1.81-7.1,1-12.06Z" transform="translate(-37 -51.1)"/><path class="cls-23" d="M150.24,255.9s-5.52.73-8.75,2.5-3.15,4.1-3.15,4.1-1.12.34-2.16,2.74,3.4,9.84,3.4,9.84l3.27,1.62-.18-3.5a3.86,3.86,0,0,1-1.48-2.5c-.16-1.56,1.17-2.95,2.11-2.91s1.39,2.82,1.39,2.82l1.61-.05,1-5.62,7.57-2.29a5.93,5.93,0,0,0,3.23-4.57l-1.12.35a4.22,4.22,0,0,0,.13-3.44Z" transform="translate(-37 -51.1)"/><path class="cls-9" d="M147.49,422.88s1,7.12,1.35,10.17l16.23.36a6.19,6.19,0,0,0-3.48-3,23.33,23.33,0,0,0-6.87-1.24l-1-6.27Z" transform="translate(-37 -51.1)"/><path class="cls-9" d="M138.51,279.25l10.93,5.13.29,3.37,7,4s1.39,8.49-1.39,23.32c-2,10.64-7.55,27.7-7.55,27.7l-29.43-3.37s-.55-41.42,4.19-55l11.92-.61Z" transform="translate(-37 -51.1)"/><path class="cls-25" d="M156.75,291.74l-37.52,47.65,28.58,3.37S160.7,304.66,156.75,291.74Z" transform="translate(-37 -51.1)"/><polygon class="cls-10" points="110.81 291.66 112.72 303.8 119.28 374.02 109.76 373.86 95.52 316.14 89.7 347.91 73.35 376.73 64.45 373.01 75.85 334.88 81.37 288.29 110.81 291.66"/><path class="cls-9" d="M122.57,284.35s-27.69,29.19-24.86,33.3c.39.56,14.06,0,14.06,0l15.71-17.52S130.54,291.47,122.57,284.35Z" transform="translate(-37 -51.1)"/><path class="cls-31" d="M124.32,317.2l-8.46,20.39a.72.72,0,0,0,.39.93L131,344.59a.71.71,0,0,0,.93-.38l8.3-20.2a.72.72,0,0,0-.38-.93l-14.6-6.26A.71.71,0,0,0,124.32,317.2Z" transform="translate(-37 -51.1)"/><path class="cls-32" d="M188.75,303.5l3-3.53,2.74-2v1.29l-1.7,1.59-.76,1.46.28.34,1.07-1.42,2.46-1.56V301l-1.42,1.42-1,1.37.24.33,1.13-1.19,1.3-1,.07,1.08-.95,1.09-.91,1.26.26.46.73-1.11,1.22-.85,0,.91a7.33,7.33,0,0,0-.89,1.06,19.48,19.48,0,0,1-1.55,2.36,20.75,20.75,0,0,1-4,3.13l-2.61-1.86" transform="translate(-37 -51.1)"/><path class="cls-19" d="M135,334.25l.82,1.42.53-.47-.63-1.89-1.95-1.76v0l-6.83-1.6-14-13.59s-9-4.39-15.2,1.31l26.18,16.42h0c1.39,1.63,6,3.11,6.63,3.29h0l.06,0h0l1.19.1,1.45.49.24-.44-1-.88-1.26-.44.1-.18,2.07.63,1.21.66.38-.54-1.21-1-1.82-.91.13-.26,1.5.45,1.63,1.36.55-.58-1.42-1.65-1.52-.94.11-.21Z" transform="translate(-37 -51.1)"/><path class="cls-19" d="M188.12,303.33l-2.89,4.4s-17.85,10.9-18.35,12.16-4,8-4,8,5.87,3.38,9.49,1.73,17.77-18.36,17.77-18.36l-2-1.42,1.33-1.71.63-3.6,2.18-1.81v-1Z" transform="translate(-37 -51.1)"/><polygon class="cls-33" points="95.52 316.14 100.72 311 113.22 373.92 109.76 373.86 95.52 316.14"/><polygon class="cls-25" points="82.22 258.37 88.24 251.48 81.57 269.42 82.22 258.37"/><polygon class="cls-33" points="89.7 347.91 80.26 345.95 85.42 355.46 89.7 347.91"/></svg>